<svg xmlns="http://www.w3.org/2000/svg" viewBox="0 0 710 807">
  <path fill="#000" fill-rule="evenodd" d="M220,8 L221,203 L196,178 L194,148 L208,136 L208,21Z M491,8 L505,21 L504,135 L519,148 L518,177 L492,203Z M101,102 L116,113 L116,170 L202,252 L201,298 L184,283 L184,266 L101,186Z M607,102 L610,102 L611,186 L528,266 L528,284 L513,298 L510,253 L595,171 L596,113Z M227,168 L287,225 L287,252 L282,256 L282,342 L296,351 L301,356 L289,375 L267,362 L266,248 L226,209Z M484,168 L487,174 L487,209 L448,248 L447,362 L425,375 L416,359 L413,353 L432,342 L432,256 L427,252 L427,224Z M206,257 L220,268 L220,340 L284,381 L272,401 L257,392 L207,361 L175,368 L206,321Z M505,257 L507,322 L537,369 L506,361 L456,393 L441,401 L430,380 L493,340 L493,268Z M349,263 L352,264 L351,293 L328,316 L328,335 L335,339 L335,364 L323,356 L313,351 L314,299Z M363,263 L401,300 L401,351 L393,356 L379,364 L379,340 L387,334 L387,317 L364,294Z M352,304 L354,559 L342,548 L340,314Z M361,304 L374,314 L373,548 L361,559Z M308,359 L330,371 L332,375 L331,411 L323,418 L323,522 L333,532 L333,616 L320,604 L319,561 L289,530 L278,519 L277,451 L299,429 L299,418 L278,404Z M404,359 L436,404 L415,418 L415,429 L437,452 L436,518 L425,530 L395,561 L394,605 L381,615 L381,533 L391,523 L392,483 L392,419 L383,410 L383,372Z M221,387 L239,396 L241,400 L198,464 L112,465 L101,437 L99,426 L123,449 L181,449Z M489,387 L494,389 L532,449 L589,449 L610,427 L614,427 L611,433 L599,465 L515,464 L472,400Z M254,407 L264,412 L264,415 L229,467 L248,487 L248,670 L259,681 L261,756 L261,799 L253,793 L248,786 L247,712 L216,682 L214,467Z M458,407 L499,467 L497,682 L467,711 L465,789 L459,795 L452,799 L454,682 L465,671 L466,487 L484,466 L449,414Z M91,434 L94,435 L104,466 L34,536 L20,539 L19,626 L15,625 L8,618 L9,516Z M618,434 L701,515 L702,618 L697,624 L694,627 L691,625 L690,539 L680,539 L608,467Z"/>
</svg>
